<svg width="254" height="112" viewBox="0 0 254 112" fill="none" xmlns="http://www.w3.org/2000/svg">
<path d="M35.27 1.58002C30.35 1.58002 26.09 4.83002 24.11 9.52002C22.11 4.84002 17.88 1.60002 12.97 1.60002C6.17 1.60002 0.630005 7.80002 0.630005 15.41V69.11C0.630005 69.423 0.754324 69.7231 0.975616 69.9444C1.19691 70.1657 1.49704 70.29 1.81 70.29C2.12295 70.29 2.42309 70.1657 2.64438 69.9444C2.86567 69.7231 2.99001 69.423 2.99001 69.11V15.41C2.99001 9.10002 7.46001 3.95001 12.99 3.95001C18.52 3.95001 22.92 9.05002 22.99 15.33V69.08C22.9804 69.1597 22.9804 69.2403 22.99 69.32C23.0286 69.5975 23.1664 69.8515 23.3777 70.0354C23.5891 70.2192 23.8599 70.3203 24.14 70.32C24.2945 70.3213 24.4477 70.292 24.5908 70.2338C24.7339 70.1756 24.8641 70.0897 24.9738 69.9809C25.0835 69.8721 25.1706 69.7427 25.23 69.6001C25.2894 69.4575 25.32 69.3045 25.32 69.15V15.33C25.32 9.04002 29.81 3.93001 35.32 3.93001C40.83 3.93001 45.32 9.07001 45.32 15.39V69.08C45.3049 69.2434 45.3241 69.4082 45.3763 69.5638C45.4284 69.7194 45.5125 69.8624 45.6231 69.9836C45.7337 70.1049 45.8683 70.2017 46.0185 70.268C46.1686 70.3343 46.3309 70.3685 46.495 70.3685C46.6591 70.3685 46.8214 70.3343 46.9715 70.268C47.1217 70.2017 47.2563 70.1049 47.3669 69.9836C47.4775 69.8624 47.5616 69.7194 47.6137 69.5638C47.6659 69.4082 47.6851 69.2434 47.67 69.08V15.39C47.6 7.77001 42.07 1.58002 35.27 1.58002Z" fill="black"/>
<path d="M78.38 1.59998C78.225 1.59998 78.0716 1.63049 77.9284 1.68979C77.7852 1.74909 77.6551 1.83601 77.5456 1.94559C77.436 2.05516 77.3491 2.18524 77.2898 2.3284C77.2305 2.47156 77.2 2.62501 77.2 2.77997V56.47C77.2 62.79 72.72 67.93 67.2 67.93C61.68 67.93 57.2 62.79 57.2 56.47V2.77997C57.2151 2.61656 57.1959 2.45179 57.1437 2.2962C57.0915 2.14061 57.0075 1.99762 56.8969 1.87636C56.7863 1.7551 56.6516 1.65824 56.5015 1.59196C56.3514 1.52569 56.1891 1.49146 56.025 1.49146C55.8609 1.49146 55.6986 1.52569 55.5484 1.59196C55.3983 1.65824 55.2636 1.7551 55.1531 1.87636C55.0425 1.99762 54.9584 2.14061 54.9062 2.2962C54.854 2.45179 54.8349 2.61656 54.85 2.77997V56.47C54.85 64.09 60.38 70.28 67.18 70.28C69.1919 70.243 71.1622 69.7006 72.9096 68.7029C74.6571 67.7051 76.1255 66.2839 77.18 64.57V110C77.207 110.293 77.3425 110.565 77.5599 110.763C77.7772 110.962 78.0608 111.071 78.355 111.071C78.6491 111.071 78.9327 110.962 79.1501 110.763C79.3674 110.565 79.5029 110.293 79.53 110V2.77997C79.5301 2.47214 79.4099 2.17646 79.195 1.95601C78.9802 1.73556 78.6877 1.6078 78.38 1.59998V1.59998Z" fill="black"/>
<path d="M147.55 31.88H133.47V1.57001H128.14V70.06H133.47V37.21H147.55V70.06H152.88V1.57001H147.55V31.88Z" fill="black"/>
<path d="M176.35 0.830017H174.83C171.894 0.83266 169.079 1.99949 167.002 4.07466C164.925 6.14983 163.755 8.96396 163.75 11.9V59.74C163.755 62.6761 164.925 65.4902 167.002 67.5654C169.079 69.6406 171.894 70.8074 174.83 70.81H176.35C179.286 70.8074 182.101 69.6406 184.178 67.5654C186.255 65.4902 187.425 62.6761 187.43 59.74V11.9C187.425 8.96396 186.255 6.14983 184.178 4.07466C182.101 1.99949 179.286 0.83266 176.35 0.830017V0.830017ZM182.1 59.74C182.097 61.2633 181.49 62.7233 180.412 63.7994C179.334 64.8756 177.873 65.48 176.35 65.48H174.83C173.307 65.48 171.846 64.8756 170.768 63.7994C169.69 62.7233 169.083 61.2633 169.08 59.74V11.9C169.083 10.3767 169.69 8.91678 170.768 7.84061C171.846 6.76443 173.307 6.16002 174.83 6.16002H176.35C177.873 6.16002 179.334 6.76443 180.412 7.84061C181.49 8.91678 182.097 10.3767 182.1 11.9V59.74Z" fill="black"/>
<path d="M198.3 11.79V59.11C198.307 60.5571 198.599 61.9887 199.159 63.3227C199.72 64.6567 200.539 65.867 201.568 66.8842C202.597 67.9014 203.817 68.7055 205.158 69.2505C206.498 69.7954 207.933 70.0705 209.38 70.06H216.23V64.79H209.38C207.865 64.798 206.408 64.2044 205.33 63.1394C204.252 62.0745 203.641 60.6253 203.63 59.11V38.49H216.23V33.15H203.63V11.79C203.641 10.2738 204.252 8.82357 205.329 7.75705C206.407 6.69053 207.864 6.09468 209.38 6.10001H216.23V0.830003H209.38C207.932 0.819463 206.496 1.09488 205.155 1.64046C203.814 2.18604 202.594 2.99105 201.564 4.00931C200.535 5.02757 199.717 6.23902 199.156 7.57422C198.596 8.90942 198.305 10.3421 198.3 11.79Z" fill="black"/>
<path d="M248.94 0.830003C247.489 0.819448 246.05 1.09618 244.706 1.64426C243.362 2.19233 242.14 3.00091 241.11 4.02341C240.08 5.0459 239.263 6.26211 238.705 7.60193C238.147 8.94175 237.86 10.3787 237.86 11.83V59.15C237.849 60.6653 237.238 62.1145 236.16 63.1794C235.082 64.2443 233.625 64.838 232.11 64.83H227.11V70.1H232.11C233.557 70.1105 234.992 69.8355 236.333 69.2905C237.673 68.7455 238.893 67.9414 239.922 66.9242C240.952 65.907 241.77 64.6967 242.331 63.3627C242.891 62.0287 243.183 60.5971 243.19 59.15V11.79C243.201 10.2738 243.812 8.82357 244.889 7.75705C245.967 6.69053 247.424 6.09468 248.94 6.10001H253.94V0.830003H248.94Z" fill="black"/>
<path d="M101.18 12.42V59.22C101.164 60.7274 100.551 62.1668 99.4746 63.2224C98.3984 64.278 96.9473 64.8633 95.4399 64.85H90.4399V70.06H95.4399C98.3419 70.0788 101.134 68.95 103.207 66.9196C105.281 64.8892 106.468 62.1217 106.51 59.22V12.42C106.518 11.6728 106.673 10.9344 106.966 10.2471C107.259 9.55972 107.685 8.93686 108.219 8.41406C108.753 7.89126 109.384 7.47874 110.078 7.20008C110.771 6.92143 111.513 6.78208 112.26 6.79H117.26V1.58001H112.26C109.356 1.55859 106.562 2.68616 104.486 4.71684C102.411 6.74751 101.222 9.51654 101.18 12.42V12.42Z" fill="black"/>
</svg>
